<?xml version="1.0" encoding="UTF-8"?>
<svg width="32" height="32" viewBox="0 0 32 32" fill="none" xmlns="http://www.w3.org/2000/svg">
  <circle cx="16" cy="16" r="16" fill="#0033AD"/>
  <path d="M16.0002 18.764C17.5295 18.764 18.7641 17.5294 18.7641 16.0001C18.7641 14.4707 17.5295 13.2361 16.0002 13.2361C14.4708 13.2361 13.2362 14.4707 13.2362 16.0001C13.2362 17.5294 14.4708 18.764 16.0002 18.764Z" fill="white"/>
  <path d="M22.531 10.8748C22.0321 10.8748 21.6238 10.4684 21.6238 9.9676C21.6238 9.46679 22.0331 9.06032 22.531 9.06032C23.0309 9.06032 23.4382 9.46679 23.4382 9.9676C23.4382 10.4684 23.0309 10.8748 22.531 10.8748ZM22.531 8.38184C21.6547 8.38184 20.9453 9.08933 20.9453 9.9676C20.9453 10.8439 21.6537 11.5533 22.531 11.5533C23.4093 11.5533 24.1167 10.8448 24.1167 9.9676C24.1167 9.09032 23.4093 8.38184 22.531 8.38184Z" fill="white"/>
  <path d="M9.46796 10.8748C8.97013 10.8748 8.56266 10.4684 8.56266 9.9676C8.56266 9.46679 8.97013 9.06032 9.46896 9.06032C9.96778 9.06032 10.3763 9.46679 10.3763 9.9676C10.3753 10.4684 9.97076 10.8748 9.46896 10.8748H9.46796ZM9.46896 8.38184C8.59268 8.38184 7.88419 9.08933 7.88419 9.9676C7.88419 10.8439 8.59268 11.5533 9.46896 11.5533C10.3463 11.5533 11.0538 10.8448 11.0538 9.9676C11.0538 9.09032 10.3453 8.38184 9.46896 8.38184Z" fill="white"/>
  <path d="M18.7214 7.20804C18.2226 7.20804 17.8152 6.80156 17.8152 6.30075C17.8152 5.79994 18.2236 5.39346 18.7214 5.39346C19.2212 5.39346 19.6277 5.79994 19.6277 6.30075C19.6277 6.80156 19.2212 7.20804 18.7214 7.20804ZM18.7214 4.71399C17.8451 4.71399 17.1367 5.42247 17.1367 6.30075C17.1367 7.17703 17.8451 7.88551 18.7214 7.88551C19.5977 7.88551 20.3062 7.17703 20.3062 6.30075C20.3062 5.42347 19.5977 4.71399 18.7214 4.71399Z" fill="white"/>
  <path d="M13.2777 7.20804C12.7789 7.20804 12.3714 6.80156 12.3714 6.30075C12.3714 5.79994 12.7789 5.39346 13.2777 5.39346C13.7765 5.39346 14.184 5.79994 14.184 6.30075C14.184 6.80156 13.7765 7.20804 13.2777 7.20804ZM13.2777 4.71399C12.4014 4.71399 11.6929 5.42247 11.6929 6.30075C11.6929 7.17703 12.4014 7.88551 13.2777 7.88551C14.154 7.88551 14.8624 7.17703 14.8624 6.30075C14.8624 5.42347 14.154 4.71399 13.2777 4.71399Z" fill="white"/>
  <path d="M16.0001 5.18354C15.5012 5.18354 15.0938 4.77706 15.0938 4.27625C15.0938 3.77544 15.5012 3.36896 16.0001 3.36896C16.499 3.36896 16.9064 3.77544 16.9064 4.27625C16.9064 4.77706 16.499 5.18354 16.0001 5.18354ZM16.0001 2.69049C15.1238 2.69049 14.4153 3.39897 14.4153 4.27625C14.4153 5.15253 15.1238 5.86101 16.0001 5.86101C16.8764 5.86101 17.5849 5.15253 17.5849 4.27625C17.5849 3.39897 16.8764 2.69049 16.0001 2.69049Z" fill="white"/>
  <path d="M22.531 26.6096C22.0321 26.6096 21.6238 26.2032 21.6238 25.7024C21.6238 25.2016 22.0321 24.7951 22.531 24.7951C23.0299 24.7951 23.4382 25.2016 23.4382 25.7024C23.4382 26.2032 23.0309 26.6096 22.531 26.6096ZM22.531 24.1166C21.6547 24.1166 20.9453 24.8251 20.9453 25.7024C20.9453 26.5787 21.6537 27.2881 22.531 27.2881C23.4093 27.2881 24.1167 26.5797 24.1167 25.7024C24.1167 24.8261 23.4093 24.1166 22.531 24.1166Z" fill="white"/>
  <path d="M9.46894 26.6096C8.97013 26.6096 8.56266 26.2032 8.56266 25.7024C8.56266 25.2016 8.97013 24.7951 9.46894 24.7951C9.96778 24.7951 10.3753 25.2016 10.3753 25.7024C10.3753 26.2032 9.96778 26.6096 9.46894 26.6096ZM9.46894 24.1166C8.59267 24.1166 7.88419 24.8251 7.88419 25.7024C7.88419 26.5787 8.59267 27.2881 9.46894 27.2881C10.3452 27.2881 11.0537 26.5797 11.0537 25.7024C11.0537 24.8261 10.3452 24.1166 9.46894 24.1166Z" fill="white"/>
  <path d="M18.7214 28.2821C18.2226 28.2821 17.8152 27.8756 17.8152 27.3748C17.8152 26.874 18.2226 26.4675 18.7214 26.4675C19.2203 26.4675 19.6277 26.874 19.6277 27.3748C19.6277 27.8756 19.2203 28.2821 18.7214 28.2821ZM18.7214 25.789C17.8451 25.789 17.1367 26.4975 17.1367 27.3748C17.1367 28.251 17.8451 28.9595 18.7214 28.9595C19.5977 28.9595 20.3062 28.251 20.3062 27.3748C20.3062 26.4975 19.5977 25.789 18.7214 25.789Z" fill="white"/>
  <path d="M13.2777 28.2821C12.7789 28.2821 12.3714 27.8756 12.3714 27.3748C12.3714 26.874 12.7789 26.4675 13.2777 26.4675C13.7765 26.4675 14.184 26.874 14.184 27.3748C14.184 27.8756 13.7765 28.2821 13.2777 28.2821ZM13.2777 25.789C12.4014 25.789 11.6929 26.4975 11.6929 27.3748C11.6929 28.251 12.4014 28.9595 13.2777 28.9595C14.154 28.9595 14.8624 28.251 14.8624 27.3748C14.8624 26.4975 14.154 25.789 13.2777 25.789Z" fill="white"/>
  <path d="M16 30.304C15.5012 30.304 15.0938 29.8975 15.0938 29.3967C15.0938 28.8958 15.5012 28.4894 16 28.4894C16.499 28.4894 16.9064 28.8958 16.9064 29.3967C16.9064 29.8975 16.499 30.304 16 30.304ZM16 27.8109C15.1238 27.8109 14.4153 28.5194 14.4153 29.3967C14.4153 30.2729 15.1238 30.9814 16 30.9814C16.8764 30.9814 17.5849 30.2729 17.5849 29.3967C17.5849 28.5194 16.8764 27.8109 16 27.8109Z" fill="white"/>
  <path d="M6.70159 13.6446C6.20277 13.6446 5.7953 13.2381 5.7953 12.7373C5.7953 12.2365 6.20277 11.83 6.70159 11.83C7.2004 11.83 7.60788 12.2365 7.60788 12.7373C7.60788 13.2381 7.2004 13.6446 6.70159 13.6446ZM6.70159 11.1515C5.82531 11.1515 5.11682 11.86 5.11682 12.7373C5.11682 13.6135 5.82531 14.322 6.70159 14.322C7.57787 14.322 8.28635 13.6135 8.28635 12.7373C8.28635 11.86 7.57787 11.1515 6.70159 11.1515Z" fill="white"/>
  <path d="M25.2984 13.6446C24.7996 13.6446 24.3921 13.2381 24.3921 12.7373C24.3921 12.2365 24.7996 11.83 25.2984 11.83C25.7972 11.83 26.2047 12.2365 26.2047 12.7373C26.2047 13.2381 25.7972 13.6446 25.2984 13.6446ZM25.2984 11.1515C24.4221 11.1515 23.7136 11.86 23.7136 12.7373C23.7136 13.6135 24.4221 14.322 25.2984 14.322C26.1747 14.322 26.8832 13.6135 26.8832 12.7373C26.8832 11.86 26.1747 11.1515 25.2984 11.1515Z" fill="white"/>
  <path d="M6.70159 22.9368C6.20277 22.9368 5.7953 22.5303 5.7953 22.0295C5.7953 21.5287 6.20277 21.1222 6.70159 21.1222C7.2004 21.1222 7.60788 21.5287 7.60788 22.0295C7.60788 22.5303 7.2004 22.9368 6.70159 22.9368ZM6.70159 20.4437C5.82531 20.4437 5.11682 21.1522 5.11682 22.0295C5.11682 22.9058 5.82531 23.6143 6.70159 23.6143C7.57787 23.6143 8.28635 22.9058 8.28635 22.0295C8.28635 21.1522 7.57787 20.4437 6.70159 20.4437Z" fill="white"/>
  <path d="M25.2984 22.9368C24.7996 22.9368 24.3921 22.5303 24.3921 22.0295C24.3921 21.5287 24.7996 21.1222 25.2984 21.1222C25.7972 21.1222 26.2047 21.5287 26.2047 22.0295C26.2047 22.5303 25.7972 22.9368 25.2984 22.9368ZM25.2984 20.4437C24.4221 20.4437 23.7136 21.1522 23.7136 22.0295C23.7136 22.9058 24.4221 23.6143 25.2984 23.6143C26.1747 23.6143 26.8832 22.9058 26.8832 22.0295C26.8832 21.1522 26.1747 20.4437 25.2984 20.4437Z" fill="white"/>
  <path d="M9.46894 15.066C8.97013 15.066 8.56266 14.6595 8.56266 14.1587C8.56266 13.6579 8.97013 13.2514 9.46894 13.2514C9.96778 13.2514 10.3753 13.6579 10.3753 14.1587C10.3753 14.6595 9.96778 15.066 9.46894 15.066ZM9.46894 12.5729C8.59267 12.5729 7.88419 13.2814 7.88419 14.1587C7.88419 15.035 8.59267 15.7435 9.46894 15.7435C10.3452 15.7435 11.0537 15.035 11.0537 14.1587C11.0537 13.2814 10.3452 12.5729 9.46894 12.5729Z" fill="white"/>
  <path d="M22.531 15.066C22.0321 15.066 21.6238 14.6595 21.6238 14.1587C21.6238 13.6579 22.0321 13.2514 22.531 13.2514C23.0299 13.2514 23.4382 13.6579 23.4382 14.1587C23.4382 14.6595 23.0309 15.066 22.531 15.066ZM22.531 12.5729C21.6547 12.5729 20.9453 13.2814 20.9453 14.1587C20.9453 15.035 21.6537 15.7435 22.531 15.7435C23.4093 15.7435 24.1167 15.035 24.1167 14.1587C24.1167 13.2814 23.4093 12.5729 22.531 12.5729Z" fill="white"/>
  <path d="M9.46894 21.5153C8.97013 21.5153 8.56266 21.1088 8.56266 20.608C8.56266 20.1072 8.97013 19.7007 9.46894 19.7007C9.96778 19.7007 10.3753 20.1072 10.3753 20.608C10.3753 21.1088 9.96778 21.5153 9.46894 21.5153ZM9.46894 19.0222C8.59267 19.0222 7.88419 19.7307 7.88419 20.608C7.88419 21.4843 8.59267 22.1928 9.46894 22.1928C10.3452 22.1928 11.0537 21.4843 11.0537 20.608C11.0537 19.7307 10.3452 19.0222 9.46894 19.0222Z" fill="white"/>
  <path d="M22.531 21.5153C22.0321 21.5153 21.6238 21.1088 21.6238 20.608C21.6238 20.1072 22.0321 19.7007 22.531 19.7007C23.0299 19.7007 23.4382 20.1072 23.4382 20.608C23.4382 21.1088 23.0309 21.5153 22.531 21.5153ZM22.531 19.0222C21.6547 19.0222 20.9453 19.7307 20.9453 20.608C20.9453 21.4843 21.6537 22.1928 22.531 22.1928C23.4093 22.1928 24.1167 21.4843 24.1167 20.608C24.1167 19.7307 23.4093 19.0222 22.531 19.0222Z" fill="white"/>
</svg>
