<?xml version="1.0" encoding="UTF-8"?>
<svg width="32" height="32" viewBox="0 0 32 32" fill="none" xmlns="http://www.w3.org/2000/svg">
  <circle cx="16" cy="16" r="16" fill="#F3BA2F"/>
  <path d="M16 7.33333L18.9173 10.2613L13.8307 15.348L10.9133 12.4307L16 7.33333Z" fill="white"/>
  <path d="M18.9173 13.6866L16 16.604L13.0827 13.6866L10.1653 16.604L13.0827 19.5213L16 22.4387L18.9173 19.5213L21.8347 16.604L18.9173 13.6866Z" fill="white"/>
  <path d="M21.0867 12.4307L18.1693 15.348L13.0827 10.2613L16 7.33333L21.0867 12.4307Z" fill="white"/>
  <path d="M16 22.4387L18.9173 19.5213L21.8347 22.4387L18.9173 25.3667L16 22.4387Z" fill="white"/>
  <path d="M13.0827 19.5213L10.1653 22.4387L13.0827 25.3667L16 22.4387L13.0827 19.5213Z" fill="white"/>
</svg>
