<?xml version="1.0" encoding="UTF-8"?>
<svg width="32" height="32" viewBox="0 0 32 32" fill="none" xmlns="http://www.w3.org/2000/svg">
  <circle cx="16" cy="16" r="16" fill="#F7931A"/>
  <path d="M21.5675 14.0025C21.9 11.6725 20.16 10.4925 17.835 9.725L18.5775 7.1075L17.0125 6.7075L16.29 9.2625C15.8775 9.15 15.4525 9.0425 15.03 8.935L15.7575 6.3575L14.1925 5.9575L13.45 8.575C13.0975 8.485 12.7525 8.395 12.42 8.305V8.295L10.2525 7.75L9.82751 9.425C9.82751 9.425 10.9575 9.6875 10.9325 9.7075C11.6025 9.8825 11.7225 10.3225 11.7 10.6675L10.86 13.6025C10.9075 13.615 10.9675 13.6325 11.035 13.6575L10.8575 13.615L9.72001 17.645C9.64001 17.8475 9.43751 18.1475 8.96251 18.025C8.97751 18.0525 7.86 17.7425 7.86 17.7425L7 19.53L9.04 20.045C9.42 20.15 9.79 20.26 10.1525 20.365L9.4 22.9975L10.9625 23.3975L11.705 20.78C12.135 20.905 12.5525 21.02 12.96 21.1275L12.2225 23.7275L13.7875 24.1275L14.54 21.5C17.6475 22.0975 20.0075 21.8725 21.0175 19.1225C21.83 16.9225 21.06 15.645 19.47 14.8375C20.635 14.56 21.5 13.755 21.5675 14.0025ZM17.365 18.0525C16.775 20.2525 13.3875 19.0825 12.255 18.7975L13.2575 15.3475C14.39 15.635 17.975 15.77 17.365 18.0525ZM17.955 13.9675C17.415 15.9675 14.625 14.9575 13.6775 14.7175L14.5875 11.5975C15.535 11.8375 18.5125 11.8925 17.955 13.9675Z" fill="white"/>
</svg>
