<?xml version="1.0" encoding="UTF-8"?>
<svg width="24" height="24" viewBox="0 0 24 24" fill="none" xmlns="http://www.w3.org/2000/svg">
  <path d="M12 15C13.6569 15 15 13.6569 15 12C15 10.3431 13.6569 9 12 9C10.3431 9 9 10.3431 9 12C9 13.6569 10.3431 15 12 15Z" stroke="currentColor" stroke-width="2" stroke-linecap="round" stroke-linejoin="round"/>
  <path d="M19.4 15C19.1277 15.6171 19.2583 16.3378 19.73 16.83L19.79 16.89C20.1656 17.2656 20.3765 17.7701 20.3765 18.295C20.3765 18.8199 20.1656 19.3244 19.79 19.7C19.4144 20.0756 18.9099 20.2865 18.385 20.2865C17.8601 20.2865 17.3556 20.0756 16.98 19.7L16.92 19.64C16.4278 19.1683 15.7071 19.0377 15.09 19.31C14.4887 19.5686 14.0936 20.1445 14.09 20.79V21C14.09 21.5304 13.8793 22.0391 13.5042 22.4142C13.1291 22.7893 12.6204 23 12.09 23C11.5596 23 11.0509 22.7893 10.6758 22.4142C10.3007 22.0391 10.09 21.5304 10.09 21V20.91C10.0797 20.24 9.64778 19.6486 9.01999 19.4C8.40296 19.1277 7.68217 19.2583 7.18999 19.73L7.12999 19.79C6.75438 20.1656 6.24987 20.3765 5.72499 20.3765C5.20011 20.3765 4.69559 20.1656 4.31999 19.79C3.94439 19.4144 3.73351 18.9099 3.73351 18.385C3.73351 17.8601 3.94439 17.3556 4.31999 16.98L4.37999 16.92C4.85168 16.4278 4.98236 15.7071 4.70999 15.09C4.45144 14.4887 3.87551 14.0936 3.22999 14.09H3.09999C2.56956 14.09 2.06086 13.8793 1.68579 13.5042C1.31071 13.1291 1.09999 12.6204 1.09999 12.09C1.09999 11.5596 1.31071 11.0509 1.68579 10.6758C2.06086 10.3007 2.56956 10.09 3.09999 10.09H3.18999C3.86005 10.0797 4.45142 9.64778 4.69999 9.01999C4.97236 8.40297 4.84168 7.68219 4.36999 7.19L4.30999 7.13C3.93439 6.75439 3.72351 6.24987 3.72351 5.72499C3.72351 5.20011 3.93439 4.6956 4.30999 4.32C4.68559 3.94439 5.19012 3.73351 5.71499 3.73351C6.23987 3.73351 6.74439 3.94439 7.11999 4.32L7.17999 4.38C7.67217 4.85169 8.39296 4.98237 9.00999 4.71C9.61124 4.45145 10.0064 3.87552 10.01 3.23V3.1C10.01 2.56957 10.2207 2.06086 10.5958 1.68579C10.9709 1.31072 11.4796 1.1 12.01 1.1C12.5404 1.1 13.0491 1.31072 13.4242 1.68579C13.7993 2.06086 14.01 2.56957 14.01 3.1V3.19C14.0136 3.83552 14.4088 4.41145 15.01 4.67C15.627 4.94237 16.3478 4.81169 16.84 4.34L16.9 4.28C17.2756 3.90439 17.7801 3.69351 18.305 3.69351C18.8299 3.69351 19.3344 3.90439 19.71 4.28C20.0856 4.6556 20.2965 5.16012 20.2965 5.685C20.2965 6.20988 20.0856 6.7144 19.71 7.09L19.65 7.15C19.1783 7.64218 19.0476 8.36297 19.32 8.98C19.5786 9.58125 20.1545 9.97642 20.8 9.98H20.91C21.4404 9.98 21.9491 10.1907 22.3242 10.5658C22.6993 10.9409 22.91 11.4496 22.91 11.98C22.91 12.5104 22.6993 13.0191 22.3242 13.3942C21.9491 13.7693 21.4404 13.98 20.91 13.98H20.82C20.1745 13.9836 19.5986 14.3788 19.34 14.98L19.4 15Z" stroke="currentColor" stroke-width="2" stroke-linecap="round" stroke-linejoin="round"/>
</svg>
