<?xml version="1.0" encoding="UTF-8"?>
<svg width="32" height="32" viewBox="0 0 32 32" fill="none" xmlns="http://www.w3.org/2000/svg">
  <circle cx="16" cy="16" r="16" fill="#2775CA"/>
  <path d="M19.5438 20.7562V22.0166C19.5438 22.0166 18.4521 22.6573 16.0053 22.6573C13.5585 22.6573 12.4647 22.0166 12.4647 22.0166V20.7562C12.4647 20.7562 13.5585 21.3989 16.0053 21.3989C18.4521 21.3989 19.5438 20.7562 19.5438 20.7562ZM19.5438 18.9739V20.2343C19.5438 20.2343 18.4521 20.875 16.0053 20.875C13.5585 20.875 12.4647 20.2343 12.4647 20.2343V18.9739C12.4647 18.9739 13.5585 19.6166 16.0053 19.6166C18.4521 19.6166 19.5438 18.9739 19.5438 18.9739ZM19.5438 17.1916V18.452C19.5438 18.452 18.4521 19.0927 16.0053 19.0927C13.5585 19.0927 12.4647 18.452 12.4647 18.452V17.1916C12.4647 17.1916 13.5585 17.8343 16.0053 17.8343C18.4521 17.8343 19.5438 17.1916 19.5438 17.1916ZM19.5438 15.4093V16.6697C19.5438 16.6697 18.4521 17.3104 16.0053 17.3104C13.5585 17.3104 12.4647 16.6697 12.4647 16.6697V15.4093C12.4647 15.4093 13.5585 16.052 16.0053 16.052C18.4521 16.052 19.5438 15.4093 19.5438 15.4093Z" fill="white"/>
  <path d="M19.5438 13.627V14.8874C19.5438 14.8874 18.4521 15.5281 16.0053 15.5281C13.5585 15.5281 12.4647 14.8874 12.4647 14.8874V13.627C12.4647 13.627 13.5585 14.2697 16.0053 14.2697C18.4521 14.2697 19.5438 13.627 19.5438 13.627Z" fill="white"/>
  <path d="M16.0053 13.7469C18.7219 13.7469 20.9238 12.7791 20.9238 11.5906C20.9238 10.4022 18.7219 9.43433 16.0053 9.43433C13.2887 9.43433 11.0868 10.4022 11.0868 11.5906C11.0868 12.7791 13.2887 13.7469 16.0053 13.7469Z" fill="white"/>
  <path d="M16 26C21.5229 26 26 21.5228 26 16C26 10.4771 21.5229 6 16 6C10.4771 6 6 10.4771 6 16C6 21.5228 10.4771 26 16 26ZM16 8.08571C20.3741 8.08571 23.9143 11.6259 23.9143 16C23.9143 20.3741 20.3741 23.9143 16 23.9143C11.6259 23.9143 8.08571 20.3741 8.08571 16C8.08571 11.6259 11.6259 8.08571 16 8.08571Z" fill="white"/>
</svg>
