<?xml version="1.0" encoding="UTF-8"?>
<svg width="32" height="32" viewBox="0 0 32 32" fill="none" xmlns="http://www.w3.org/2000/svg">
  <circle cx="16" cy="16" r="16" fill="#23292F"/>
  <path d="M22.6523 9.33333H25.3333L19.3417 15.3217C17.964 16.7053 16.009 17.4853 14 17.4853C11.991 17.4853 10.0361 16.7053 8.65833 15.3217L2.66667 9.33333H5.34767L10.0243 14.01C10.9951 14.9867 12.2797 15.5348 13.6107 15.5348C14.9417 15.5348 16.2263 14.9867 17.197 14.01L22.6523 9.33333Z" fill="white"/>
  <path d="M5.34767 22.6667H2.66667L8.65833 16.6783C10.0361 15.2947 11.991 14.5147 14 14.5147C16.009 14.5147 17.964 15.2947 19.3417 16.6783L25.3333 22.6667H22.6523L17.197 17.99C16.2263 17.0133 14.9417 16.4652 13.6107 16.4652C12.2797 16.4652 10.9951 17.0133 10.0243 17.99L5.34767 22.6667Z" fill="white"/>
</svg>
